<svg xmlns="http://www.w3.org/2000/svg" viewBox="0 0 838.08 1491"><defs><style>.cls-1{opacity:0.6;}.cls-2{fill:none;}.cls-3{fill:#fff;}</style></defs><title>bg_op60</title><g id="Слой_2" data-name="Слой 2"><g id="Слой_1-2" data-name="Слой 1"><g class="cls-1"><polygon class="cls-2" points="631.12 1490.19 247.1 1490.19 428.55 278 631.12 1490.19"/><polygon class="cls-3" points="428.55 278 247.1 1490.19 140.3 1490.19 0 1490 0 1137.05 428.55 278"/><polygon class="cls-2" points="428.55 278 0 1137.05 0 713.9 428.55 278"/><polygon class="cls-3" points="428.55 278 0 713.9 0 500.97 428.55 278"/><polygon class="cls-2" points="428.55 278 0 500.97 0 349.62 428.55 278"/><polygon class="cls-3" points="428.55 278 0 349.62 0 213.85 428.55 278"/><polygon class="cls-2" points="428.55 278 0 213.85 0 64.21 428.55 278"/><polygon class="cls-3" points="428.55 278 0 64.21 0 0 145.78 0 428.55 278"/><polygon class="cls-2" points="428.55 278 145.78 0 283.91 0 428.55 278"/><polygon class="cls-3" points="428.55 278 283.91 0 382.09 0 428.55 278"/><polygon class="cls-2" points="470.16 0 428.55 278 382.09 0 470.16 0"/><polygon class="cls-3" points="567.23 0 428.55 278 470.16 0 567.23 0"/><polygon class="cls-2" points="701.86 0 428.55 278 567.23 0 701.86 0"/><polygon class="cls-3" points="838.08 0 838.08 64.93 428.55 278 701.86 0 838.08 0"/><polygon class="cls-2" points="838.08 64.93 838.08 209.56 428.55 278 838.08 64.93"/><polygon class="cls-3" points="838.08 209.56 838.08 339.3 428.55 278 838.08 209.56"/><polygon class="cls-2" points="838.08 339.3 838.08 482.3 428.55 278 838.08 339.3"/><polygon class="cls-3" points="838.08 482.3 838.08 680.63 428.55 278 838.08 482.3"/><polygon class="cls-2" points="838.08 680.63 838.08 1065.13 428.55 278 838.08 680.63"/><polygon class="cls-3" points="838.08 1065.13 838.08 1491 714.9 1490.19 631.12 1490.19 428.55 278 838.08 1065.13"/></g></g></g></svg>