<?xml version="1.0" encoding="utf-8"?>
<!-- Generator: Adobe Illustrator 21.1.0, SVG Export Plug-In . SVG Version: 6.00 Build 0)  -->
<svg version="1.1" id="Слой_1" xmlns="http://www.w3.org/2000/svg" xmlns:xlink="http://www.w3.org/1999/xlink" x="0px" y="0px"
	 viewBox="0 0 35 35" style="enable-background:new 0 0 35 35;" xml:space="preserve">
<style type="text/css">
	.st0{fill:#C1272D;stroke:#C1272D;stroke-miterlimit:10;}
	.st1{fill:#FBB03B;}
	.st2{fill:none;stroke:#C1272D;stroke-miterlimit:10;}
	.st3{opacity:0.5;}
	.st4{fill:#006837;}
</style>
<rect x="1.5" y="2.5" class="st0" width="33" height="32.5"/>
<path class="st1" d="M22.2,21.3h9.2l-5,8.3h4.5v2.2h-9.5l4.9-8.2h-4.2V21.3z"/>
<path class="st1" d="M22.2,5.5h3.3v7.4c0,0.3,0.1,0.6,0.4,0.8c0.2,0.2,0.6,0.3,1,0.3c0.4,0,0.8-0.1,1-0.3c0.3-0.2,0.4-0.5,0.4-0.9
	V5.5h3.3v6.9c0,0.9-0.2,1.7-0.5,2.3c-0.3,0.6-0.8,1-1.5,1.2c-0.7,0.3-1.6,0.4-2.7,0.4c-1.7,0-2.9-0.3-3.6-1
	c-0.7-0.6-1.1-1.7-1.1-3.3V5.5z"/>
<path class="st1" d="M13.6,14.6l1.4,1.3l-1.8,1L12,15.8c-0.7,0.3-1.5,0.4-2.3,0.4c-1.7,0-3-0.5-3.9-1.5s-1.4-2.4-1.4-4.2
	c0-1.7,0.5-3,1.4-4c0.9-0.9,2.2-1.4,3.8-1.4c1.7,0,3.1,0.5,4,1.4c0.9,0.9,1.4,2.3,1.4,4.1C14.9,12.4,14.5,13.7,13.6,14.6z M9.9,13.8
	l-1.3-1.2l1.8-1l0.8,0.8c0.1-0.4,0.1-1,0.1-1.8c0-2-0.6-3.1-1.9-3.1c-1.2,0-1.8,1-1.8,3c0,1.3,0.1,2.2,0.4,2.6
	c0.3,0.4,0.7,0.7,1.3,0.7C9.6,13.9,9.7,13.8,9.9,13.8z"/>
<line class="st2" x1="18" y1="3" x2="18" y2="34.5"/>
<g>
	<path class="st1" d="M7.7,21.3h3.2v10.5H7.7V21.3z"/>
</g>
<rect x="1" y="2" class="st3" width="18" height="17.7"/>
<rect class="st4" width="18" height="18.7"/>
<path class="st1" d="M12.6,12.7l1.4,1.3l-1.8,1L11,13.8c-0.7,0.3-1.5,0.4-2.3,0.4c-1.7,0-3-0.5-3.9-1.5s-1.4-2.4-1.4-4.2
	c0-1.7,0.5-3,1.4-4c0.9-0.9,2.2-1.4,3.8-1.4c1.7,0,3.1,0.5,4,1.4c0.9,0.9,1.4,2.3,1.4,4.1C13.9,10.4,13.5,11.7,12.6,12.7z M8.9,11.9
	l-1.3-1.2l1.8-1l0.8,0.8c0.1-0.4,0.1-1,0.1-1.8c0-2-0.6-3.1-1.9-3.1c-1.2,0-1.8,1-1.8,3c0,1.3,0.1,2.2,0.4,2.6
	c0.3,0.4,0.7,0.7,1.3,0.7C8.6,11.9,8.7,11.9,8.9,11.9z"/>
</svg>
